<svg width="13" height="24" viewBox="0 0 13 24" fill="none" xmlns="http://www.w3.org/2000/svg">
<path d="M12.1375 11.1125C12.2547 11.2287 12.3477 11.3669 12.4112 11.5193C12.4746 11.6716 12.5073 11.835 12.5073 12C12.5073 12.165 12.4746 12.3284 12.4112 12.4807C12.3477 12.633 12.2547 12.7713 12.1375 12.8875L2.13755 22.8875C2.02134 23.0046 1.88309 23.0976 1.73077 23.1611C1.57844 23.2246 1.41506 23.2572 1.25005 23.2572C1.08503 23.2572 0.921649 23.2246 0.769325 23.1611C0.617001 23.0976 0.478749 23.0046 0.362546 22.8875C0.245385 22.7713 0.152393 22.633 0.0889318 22.4807C0.025471 22.3284 -0.00720215 22.165 -0.00720215 22C-0.00720215 21.835 0.025471 21.6716 0.0889318 21.5193C0.152393 21.3669 0.245385 21.2287 0.362546 21.1125L9.48755 12L0.362546 2.88749C0.127166 2.65211 -0.0050689 2.33286 -0.0050689 1.99999C-0.0050689 1.66711 0.127166 1.34787 0.362546 1.11249C0.597925 0.877108 0.917169 0.744873 1.25005 0.744873C1.58292 0.744873 1.90217 0.877108 2.13755 1.11249L12.1375 11.1125Z" fill="#254693"/>
</svg>
